<svg width="105" height="30" viewBox="0 0 105 30" fill="none" xmlns="http://www.w3.org/2000/svg">
<g clip-path="url(#clip0_41_432)">
<path d="M10.4023 0.495605H9.87937C4.55093 0.495605 0.218811 4.82732 0.218811 10.1525V20.3323H10.3996C15.7253 20.3323 20.0601 16.0006 20.0601 10.6727V10.1498C20.0601 4.82732 15.728 0.495605 10.4023 0.495605ZM16.7298 10.1525V10.6754C16.7298 14.165 13.8895 17.0051 10.3996 17.0051H3.54634V10.1525C3.54634 6.66293 6.38671 3.82282 9.87662 3.82282H10.3996C13.8922 3.82282 16.7298 6.66293 16.7298 10.1525Z" fill="#EC1D42"/>
<path d="M15.8271 9.66797H5.64362V19.8478C5.64362 25.173 9.97573 29.5074 15.3014 29.5074H15.8244C21.1501 29.5074 25.4849 25.1757 25.4849 19.8478V19.3249C25.4849 13.9997 21.1528 9.66797 15.8271 9.66797ZM22.1546 19.3249V19.8478C22.1546 23.3374 19.3143 26.1775 15.8244 26.1775H15.3014C11.8115 26.1775 8.97114 23.3374 8.97114 19.8478V12.9952H15.8244C19.317 12.9979 22.1546 15.8353 22.1546 19.3249Z" fill="#002A53"/>
<path d="M10.4023 0.495605H9.87937C4.55093 0.495605 0.218811 4.82732 0.218811 10.1525V10.3507H3.54909V10.1525C3.54909 6.66293 6.38946 3.82282 9.87937 3.82282H10.4023C13.8922 3.82282 16.7326 6.66293 16.7326 10.1525V10.6754C16.7326 14.165 13.8922 17.0051 10.4023 17.0051H9.68121V20.3351H10.4023C15.728 20.3351 20.0629 16.0034 20.0629 10.6754V10.1525C20.0601 4.82732 15.728 0.495605 10.4023 0.495605Z" fill="#EC1D42"/>
<path d="M29.5941 8.1521H33.9317C34.6363 8.1521 35.2831 8.20989 35.8721 8.32823C36.4583 8.44657 36.973 8.63371 37.4079 8.88965C37.8428 9.14559 38.1813 9.48684 38.4235 9.91616C38.6657 10.3455 38.7868 10.8711 38.7868 11.4931C38.7868 12.1426 38.5969 12.7453 38.2171 13.2984C37.8372 13.8516 37.251 14.2314 36.4638 14.4405V14.5231C37.4464 14.6882 38.195 15.0377 38.7152 15.5716C39.2327 16.1055 39.4941 16.8265 39.4941 17.7402C39.4941 18.4172 39.362 19.0062 39.1006 19.5043C38.8363 20.0024 38.4758 20.4179 38.0106 20.7482C37.5483 21.0812 36.9978 21.3261 36.362 21.4857C35.7262 21.6454 35.0354 21.7252 34.2868 21.7252H29.5969V8.1521H29.5941ZM33.7253 13.7745C34.6804 13.7745 35.3684 13.6011 35.7895 13.2544C36.2106 12.9076 36.4226 12.4178 36.4226 11.782C36.4226 11.1601 36.2024 10.7115 35.7593 10.4335C35.3161 10.1556 34.6528 10.018 33.7666 10.018H32.0024V13.7745H33.7253ZM34.0363 19.8538C35.0327 19.8538 35.8005 19.6666 36.34 19.2924C36.8794 18.9181 37.1492 18.3457 37.1492 17.5696C37.1492 16.8651 36.885 16.3422 36.3593 16.0037C35.8336 15.6652 35.0602 15.4945 34.0363 15.4945H32.0024V19.851H34.0363V19.8538Z" fill="#002A53"/>
<path d="M58.1299 11.5317H60.5162V21.7198H58.1299V11.5317Z" fill="#002A53"/>
<path d="M74.0685 11.5317H76.4547V21.7198H74.0685V11.5317Z" fill="#002A53"/>
<path d="M43.6033 12.4955V11.5323H43.1877H41.217V21.7203H43.6033V15.4952C43.5537 13.134 47.0079 13.5495 47.0079 13.5495V11.3424C47.0051 11.3451 45.0427 10.7562 43.6033 12.4955Z" fill="#002A53"/>
<path d="M54.8491 12.4151C54.7831 12.3353 54.7115 12.2609 54.6372 12.1921H54.6427C54.6345 12.1839 54.6262 12.1784 54.618 12.1701C54.5959 12.1481 54.5739 12.1289 54.5491 12.1096C52.9335 10.5492 48.6785 11.3445 48.6785 11.3445V12.1289V13.5434C48.6785 13.5434 51.5244 12.6132 52.7024 13.5434H52.6996C52.8014 13.6205 52.8923 13.7058 52.9693 13.8048C53.1152 13.992 53.2225 14.2066 53.2913 14.4488C53.3602 14.691 53.3959 14.9442 53.3959 15.2056C51.3069 15.4423 49.7849 15.8551 48.8299 16.4496C47.8748 17.044 47.3987 17.8889 47.3987 18.9814C47.3987 19.8814 47.6794 20.6024 48.2381 21.15C48.7996 21.6977 49.529 21.9701 50.4262 21.9701C51.0345 21.9701 51.5987 21.8381 52.1161 21.5766C52.5675 21.3482 52.9886 21.0647 53.3932 20.7427V21.7225H53.828H55.7794V15.6817C55.7849 14.2589 55.4712 13.1691 54.8491 12.4151ZM52.3198 19.8125C51.973 20.0052 51.5932 20.1043 51.1776 20.1043C50.7482 20.1043 50.3987 19.9997 50.129 19.7933C49.8592 19.5869 49.7244 19.2539 49.7244 18.797C49.7244 18.5494 49.7877 18.3127 49.9115 18.0925C50.0354 17.8724 50.2391 17.6742 50.5225 17.5008C50.806 17.3275 51.1831 17.1733 51.6537 17.033C52.1244 16.8954 52.7051 16.7853 53.3959 16.7V18.9814C53.0244 19.342 52.6638 19.6172 52.3198 19.8125Z" fill="#002A53"/>
<path d="M59.3327 9.74849C58.9034 9.74849 58.5511 9.62465 58.2731 9.37421C57.9951 9.12653 57.8575 8.80179 57.8575 8.39999C57.8575 7.99819 57.9951 7.6707 58.2731 7.41476C58.5511 7.15882 58.9034 7.03223 59.3327 7.03223C59.7621 7.03223 60.1144 7.15882 60.3923 7.41476C60.6676 7.6707 60.8079 7.99819 60.8079 8.39999C60.8079 8.80179 60.6703 9.12653 60.3923 9.37421C60.1144 9.62465 59.7621 9.74849 59.3327 9.74849Z" fill="#EC1D42"/>
<path d="M75.2712 9.74849C74.8419 9.74849 74.4896 9.62465 74.2144 9.37421C73.9364 9.12653 73.7988 8.80179 73.7988 8.39999C73.7988 7.99819 73.9364 7.6707 74.2144 7.41476C74.4923 7.15882 74.8446 7.03223 75.2712 7.03223C75.7006 7.03223 76.0529 7.15882 76.3309 7.41476C76.6089 7.6707 76.7465 7.99819 76.7465 8.39999C76.7465 8.80179 76.6089 9.12653 76.3309 9.37421C76.0557 9.62465 75.7006 9.74849 75.2712 9.74849Z" fill="#EC1D42"/>
<path d="M70.9557 12.333C70.4576 11.6339 69.6621 11.2844 68.5695 11.2844C67.8649 11.2844 67.2456 11.444 66.7117 11.7605C66.1805 12.0798 65.6851 12.4595 65.2282 12.9026H65.1456V11.5321H64.9805H64.7796H63.0071V21.7202H65.3933V14.6034C65.8227 14.1878 66.2052 13.8741 66.5438 13.6594C66.8823 13.4448 67.2731 13.3374 67.7163 13.3374C68.2832 13.3374 68.6906 13.5108 68.941 13.8576C69.1887 14.2043 69.3154 14.7988 69.3154 15.6409V21.7202H71.7016V15.3299C71.7016 14.031 71.4539 13.032 70.9557 12.333Z" fill="#002A53"/>
<path d="M85.0666 11.5317V18.5027C84.6786 19.0008 84.3153 19.3613 83.9767 19.5815C83.6382 19.8016 83.2474 19.9145 82.8043 19.9145C82.251 19.9145 81.8492 19.7411 81.6015 19.3971C81.351 19.0503 81.2272 18.4559 81.2272 17.6137V11.5317H78.8409V17.922C78.8409 19.2209 79.0914 20.2227 79.5868 20.919C80.085 21.618 80.8804 21.9675 81.9731 21.9675C82.6776 21.9675 83.2914 21.8079 83.8088 21.4914C84.329 21.1721 84.8079 20.7511 85.251 20.2254H85.3143V21.7198H85.5015H85.5731H87.4501V11.5317H85.0666Z" fill="#002A53"/>
<path d="M103.744 12.333C103.232 11.6339 102.436 11.2844 101.357 11.2844C100.708 11.2844 100.119 11.4578 99.5933 11.8018C99.0676 12.1486 98.5639 12.5834 98.0795 13.109C97.8455 12.5283 97.5015 12.0798 97.0529 11.7605C96.6043 11.4413 96.0043 11.2844 95.2584 11.2844C94.6226 11.2844 94.0529 11.444 93.5465 11.7605C93.04 12.0798 92.5749 12.465 92.1455 12.9219H92.063V11.5294H91.6804V11.5321H89.9272V21.7202H92.3134V14.6034C93.1033 13.7613 93.8134 13.3374 94.452 13.3374C94.9914 13.3374 95.3877 13.5108 95.6465 13.8576C95.9024 14.2043 96.029 14.7988 96.029 15.6409V21.7202H98.4153V14.6034C99.2024 13.7613 99.9153 13.3374 100.551 13.3374C101.077 13.3374 101.468 13.5108 101.724 13.8576C101.979 14.2043 102.109 14.7988 102.109 15.6409V21.7202H104.517V15.3299C104.512 14.031 104.256 13.032 103.744 12.333Z" fill="#002A53"/>
</g>
<defs>
<clipPath id="clip0_41_432">
<rect width="105" height="30" fill="white"/>
</clipPath>
</defs>
</svg>
